<svg width="44" height="44" viewBox="0 0 44 44" fill="none" xmlns="http://www.w3.org/2000/svg">
<rect width="44" height="44" rx="7.04" fill="url(#paint0_linear_502_733)"/>
<path d="M22.0004 28.9396V34.7597L32.5595 28.8642V23.0447L22.0004 28.9396Z" fill="white"/>
<path d="M26.7271 17.6989L31.9371 14.7888L22.0004 9.23975V15.0598L26.7271 17.6989Z" fill="white"/>
<path d="M17.8967 19.4367V25.2586L22.0002 27.5493V21.73L17.8967 19.4367Z" fill="white"/>
<path d="M32.5595 15.832L22.0002 21.73V27.5493L32.5595 21.6537V15.832Z" fill="white"/>
<path d="M12.0682 14.7854L17.247 17.7125L22.0004 15.0598V9.23975L12.0682 14.7854Z" fill="white"/>
<path d="M16.6512 25.9541V18.7385L11.4395 15.8293V28.864L22.0004 34.7597V28.9396L16.6512 25.9541Z" fill="white"/>
<defs>
<linearGradient id="paint0_linear_502_733" x1="22" y1="0" x2="22" y2="44" gradientUnits="userSpaceOnUse">
<stop stop-color="#0ACF83"/>
<stop offset="1" stop-color="#009ED8"/>
</linearGradient>
</defs>
</svg>
