<svg width="186" height="176" viewBox="0 0 186 176" fill="none" xmlns="http://www.w3.org/2000/svg">
<path d="M96.4454 7.97198C111.461 7.01378 126.459 10.1016 139.875 16.9134C153.291 23.7253 164.634 34.0116 172.721 46.7C180.808 59.3883 185.343 74.0138 185.852 89.0514C186.362 104.089 182.828 118.988 175.619 132.195C168.41 145.402 157.79 156.433 144.866 164.137C131.942 171.842 117.188 175.939 102.141 175.999C87.0952 176.06 72.3082 172.083 59.3224 164.484C46.3365 156.884 35.6274 145.939 28.3116 132.791L53.2971 118.889C58.1255 127.567 65.1937 134.79 73.7646 139.806C82.3354 144.822 92.095 147.447 102.026 147.407C111.956 147.367 121.694 144.663 130.224 139.578C138.754 134.493 145.764 127.212 150.522 118.495C155.28 109.779 157.612 99.9452 157.276 90.0202C156.94 80.0951 153.947 70.4421 148.609 62.0676C143.272 53.6931 135.785 46.904 126.93 42.4081C118.076 37.9122 108.177 35.8742 98.2663 36.5066L96.4454 7.97198Z" fill="#16C098"/>
<g filter="url(#filter0_d_523_1024)">
<path d="M28.7814 143.397C19.2331 130.273 13.5159 114.775 12.2622 98.6163C11.0085 82.4575 14.2672 66.2683 21.6778 51.8397C29.0883 37.4111 40.3619 25.3056 54.2511 16.8624C68.1404 8.41931 84.104 3.96773 100.376 4.00018L100.294 44.6803C91.5572 44.6628 82.986 47.053 75.5285 51.5863C68.071 56.1196 62.018 62.6194 58.0391 70.3665C54.0602 78.1135 52.3105 86.8059 52.9836 95.482C53.6568 104.158 56.7265 112.479 61.8532 119.526L28.7814 143.397Z" fill="#5932EA"/>
</g>
<defs>
<filter id="filter0_d_523_1024" x="0.596685" y="0.198895" width="111.182" height="162.203" filterUnits="userSpaceOnUse" color-interpolation-filters="sRGB">
<feFlood flood-opacity="0" result="BackgroundImageFix"/>
<feColorMatrix in="SourceAlpha" type="matrix" values="0 0 0 0 0 0 0 0 0 0 0 0 0 0 0 0 0 0 127 0" result="hardAlpha"/>
<feOffset dy="7.60221"/>
<feGaussianBlur stdDeviation="5.70166"/>
<feComposite in2="hardAlpha" operator="out"/>
<feColorMatrix type="matrix" values="0 0 0 0 0.52849 0 0 0 0 0.566891 0 0 0 0 0.9125 0 0 0 0.3 0"/>
<feBlend mode="normal" in2="BackgroundImageFix" result="effect1_dropShadow_523_1024"/>
<feBlend mode="normal" in="SourceGraphic" in2="effect1_dropShadow_523_1024" result="shape"/>
</filter>
</defs>
</svg>
