<svg width="24" height="24" viewBox="0 0 24 24" fill="none" xmlns="http://www.w3.org/2000/svg">
<path d="M13.4417 19.5001C13.2952 19.7526 13.0849 19.9623 12.8319 20.108C12.5788 20.2538 12.292 20.3305 12 20.3305C11.708 20.3305 11.4212 20.2538 11.1681 20.108C10.9151 19.9623 10.7048 19.7526 10.5583 19.5001M17 8.66675C17 7.34067 16.4732 6.0689 15.5355 5.13121C14.5979 4.19353 13.3261 3.66675 12 3.66675C10.6739 3.66675 9.40215 4.19353 8.46447 5.13121C7.52678 6.0689 7 7.34067 7 8.66675C7 14.5001 4.5 16.1667 4.5 16.1667H19.5C19.5 16.1667 17 14.5001 17 8.66675Z" stroke="#5D6679" stroke-width="1.2" stroke-linecap="round" stroke-linejoin="round"/>
</svg>
